<svg xmlns="http://www.w3.org/2000/svg" width="120" height="120" viewBox="0 0 120 120" fill="none">
  <defs>
    <linearGradient id="g" x1="24" y1="16" x2="96" y2="104">
      <stop offset="0%" stop-color="#00F58A"/>
      <stop offset="50%" stop-color="#00B86B"/>
      <stop offset="100%" stop-color="#006B45"/>
    </linearGradient>
  </defs>
  <rect x="8" y="8" width="104" height="104" rx="24" fill="#071A14" stroke="url(#g)" stroke-width="2.5"/>
  <g stroke="url(#g)" stroke-width="6" stroke-linecap="round" fill="none" opacity="0.85">
    <path d="M26 56C26 30 42 14 60 14C78 14 94 30 94 56"/>
    <path d="M38 58C38 40 48 28 60 28C72 28 82 40 82 58"/>
  </g>
  <path d="M40 54L54 74L88 42" stroke="url(#g)" stroke-width="10" stroke-linecap="round" stroke-linejoin="round" fill="none"/>
  <g fill="url(#g)">
    <rect x="32" y="84" width="16" height="20" rx="4"/>
    <rect x="52" y="72" width="16" height="32" rx="4"/>
    <rect x="72" y="56" width="16" height="48" rx="4"/>
  </g>
</svg>
